# xmcd
#
# Track frame offsets: 
#        150
#        15777
#        34558
#        53415
#        73681
#        91035
#        107704
#        138288
#        157022
#        178181
#        196834
#
# Disc length: 2859 seconds
#
# Revision: 0
# Processed by: cddbd v1.4PL0 Copyright (c) Steve Scherf et al.
# Submitted via: ExactAudioCopy v0.90b4
#
DISCID=7e0b290b
DTITLE=Drew Emmitt - Freedom Ride
DYEAR=2002
DGENRE=Bluegrass
TTITLE0=Freedom Ride
TTITLE1=Bend In The River
TTITLE2=Solid Ground
TTITLE3=Valley Of The Full Moon
TTITLE4=Paving Eisenhower
TTITLE5=If You're Ever In Oklahoma
TTITLE6=Tangled Up In Blue
TTITLE7=Lonesome Road
TTITLE8=Rainmaker
TTITLE9=One Step At A Time
TTITLE10=Memories Of Mother And Dad
EXTD=
EXTT0=
EXTT1=
EXTT2=
EXTT3=
EXTT4=
EXTT5=
EXTT6=
EXTT7=
EXTT8=
EXTT9=
EXTT10=
PLAYORDER=
